<?xml version="1.0" encoding="utf-8"?>
<!-- Generator: Adobe Illustrator 23.0.2, SVG Export Plug-In . SVG Version: 6.00 Build 0)  -->
<svg version="1.1" id="Layer_1" xmlns="http://www.w3.org/2000/svg" xmlns:xlink="http://www.w3.org/1999/xlink" x="0px" y="0px"
	 width="512px" height="512px" viewBox="0 0 512 512" style="enable-background:new 0 0 512 512;" xml:space="preserve">
<style type="text/css">
	.st0{fill:#FFFFFF;}
</style>
<g>
	<path class="st0" d="M416,188c2.1,0,4.2-0.8,5.6-2.3l44-44.1l2.8-2.8c7.4-7.4,11.5-17.2,11.5-27.7s-4.1-20.3-11.5-27.7
		c-7.4-7.4-17.2-11.5-27.7-11.5c-9.2,0-17.8,3.1-24.8,8.8c-7-5.7-15.7-8.8-24.8-8.8c-10.5,0-20.3,4.1-27.7,11.5
		c-7.4,7.4-11.5,17.2-11.5,27.7s4.1,20.3,11.5,27.7l46.9,46.9C411.8,187.2,413.9,188,416,188z M368,111.1c0-6.2,2.4-12,6.8-16.4
		c4.3-4.4,10.1-6.8,16.3-6.8c6.2,0,12,2.4,16.4,6.8l2.8,2.7c3.1,3.1,8.2,3.1,11.3,0l2.8-2.7c8.8-8.8,24.1-8.8,32.8,0
		c4.4,4.4,6.8,10.2,6.8,16.4s-2.4,12-6.7,16.3L416,168.7l-41.2-41.2C370.4,123.1,368,117.3,368,111.1z"/>
	<path class="st0" d="M488,252h-8v-20c0-0.3,0-0.6,0-0.8c-0.4-10.6-9.2-19.2-20-19.2c-14.5,0-18.2,12.8-19.7,17.7v0.1L434,252h-10
		c0-4.4-3.6-8-8-8h-32c-4.4,0-8,3.6-8,8v80c0,4.4,3.6,8,8,8h32c4.4,0,8-3.6,8-8h4.7l5.6,5.6c0.6,0.6,1.3,1.1,2,1.5c0,0,0,0,0.1,0
		c0.2,0.1,0.4,0.2,0.6,0.3h0.1c0.2,0.1,0.4,0.2,0.6,0.2c0.1,0,0.1,0,0.2,0c0.2,0.1,0.4,0.1,0.6,0.1c0.1,0,0.2,0,0.3,0
		c0.2,0,0.3,0.1,0.5,0.1c0.3,0,0.5,0,0.8,0h48c13.2,0,24-10.8,24-24v-40C512,262.8,501.2,252,488,252z M392,324v-64h16v64H392z
		 M488,324h-44.7l-5.6-5.6c-0.4-0.4-0.8-0.8-1.3-1.1h-0.1c-0.2-0.1-0.4-0.2-0.6-0.3c-0.1,0-0.1-0.1-0.2-0.1
		c-0.2-0.1-0.3-0.2-0.5-0.2c-0.1,0-0.2-0.1-0.3-0.1c-0.1,0-0.3-0.1-0.4-0.1c-0.2,0-0.3-0.1-0.5-0.1c-0.1,0-0.2,0-0.3-0.1
		c-0.2,0-0.5-0.1-0.7-0.1l0,0c-0.3,0-0.6,0-0.9,0H424v-48h16l0,0l0,0l0,0c0.4,0,0.8,0,1.2-0.1c0.1,0,0.1,0,0.2,0
		c0.4-0.1,0.8-0.2,1.1-0.3c0,0,0,0,0.1,0c0.4-0.1,0.8-0.3,1.1-0.5l0,0c0.4-0.2,0.7-0.4,1-0.6c0,0,0.1,0,0.1-0.1
		c0.3-0.2,0.6-0.5,0.9-0.8l0,0c0.3-0.3,0.5-0.6,0.8-0.9c0,0,0,0,0-0.1c0.2-0.3,0.4-0.7,0.6-1c0,0,0-0.1,0.1-0.1
		c0.2-0.4,0.3-0.8,0.4-1.1l0,0l8-28v-0.1c1.8-6.1,2.8-6.1,4.3-6.1c2.2,0,4,1.8,4,4v28c0,4.4,3.6,8,8,8h16c4.4,0,8,3.6,8,8v40
		C496,320.4,492.4,324,488,324z"/>
	<path class="st0" d="M424,380c-30.9,0-56,25.1-56,56s25.1,56,56,56s56-25.1,56-56S454.9,380,424,380z M424,476
		c-22.1,0-40-17.9-40-40s17.9-40,40-40s40,17.9,40,40S446.1,476,424,476z"/>
	<path class="st0" d="M440,428h-8v-8c0-4.4-3.6-8-8-8s-8,3.6-8,8v8h-8c-4.4,0-8,3.6-8,8s3.6,8,8,8h8v8c0,4.4,3.6,8,8,8s8-3.6,8-8v-8
		h8c4.4,0,8-3.6,8-8S444.4,428,440,428z"/>
	<path class="st0" d="M216,92c6.1,0,11.6-2.3,15.9-6l32.5,18c-0.2,1.3-0.3,2.6-0.3,4c0,13.2,10.8,24,24,24s24-10.8,24-24
		s-10.8-24-24-24c-6.1,0-11.6,2.3-15.9,6l-32.5-18c0.2-1.3,0.3-2.6,0.3-4s-0.1-2.7-0.3-4l32.5-18c4.2,3.7,9.8,6,15.9,6
		c13.2,0,24-10.8,24-24S301.2,4,288,4s-24,10.8-24,24c0,1.4,0.1,2.7,0.3,4l-32.5,18c-4.2-3.7-9.8-6-15.9-6c-13.2,0-24,10.8-24,24
		S202.8,92,216,92z M288,100c4.4,0,8,3.6,8,8s-3.6,8-8,8s-8-3.6-8-8S283.6,100,288,100z M288,20c4.4,0,8,3.6,8,8s-3.6,8-8,8
		c-2.9,0-5.5-1.6-6.9-4c0,0,0-0.1-0.1-0.1c0-0.1-0.1-0.1-0.1-0.2c-0.6-1.1-0.9-2.4-0.9-3.7C280,23.6,283.6,20,288,20z M216,60
		c4.4,0,8,3.6,8,8c0,1.3-0.3,2.6-0.9,3.7c0,0.1-0.1,0.1-0.1,0.2c0,0,0,0.1-0.1,0.1c-1.4,2.4-4,4-6.9,4c-4.4,0-8-3.6-8-8
		S211.6,60,216,60z"/>
	<path class="st0" d="M304,164c-1.9,0-3.8,0.1-5.7,0.3c-0.7-0.2-1.5-0.3-2.3-0.3h-32c-23.7,0-43.5,17.3-47.3,40H88
		c-32.3,0-60.5,17.4-75.8,43.4c-0.3,0.4-0.5,0.8-0.7,1.2C4.2,261.4,0,276.2,0,292s4.2,30.7,11.5,43.5c0.2,0.4,0.4,0.8,0.6,1.1
		c14.2,24,39.5,40.8,68.7,43.1L96.1,501c0,0.1,0,0.2,0,0.3c0,0.2,0,0.3,0.1,0.5c0,0.1,0,0.2,0.1,0.2c0,0.2,0.1,0.3,0.1,0.5
		c0,0.1,0,0.1,0.1,0.1c0.2,0.6,0.5,1.2,0.8,1.7v0.1c0.1,0.2,0.2,0.3,0.3,0.5l0.1,0.1c0.1,0.1,0.2,0.3,0.4,0.4l0.1,0.1
		c0.1,0.1,0.3,0.3,0.4,0.4l0.1,0.1c0.1,0.1,0.3,0.2,0.4,0.3l0.1,0.1c0.1,0.1,0.3,0.2,0.5,0.3c0.1,0,0.1,0.1,0.2,0.1
		c0.2,0.1,0.3,0.2,0.5,0.3c0.1,0,0.1,0.1,0.2,0.1c0.2,0.1,0.3,0.1,0.5,0.2c0.1,0,0.2,0.1,0.2,0.1c0.1,0.1,0.3,0.1,0.4,0.1
		s0.2,0.1,0.3,0.1c0.1,0,0.3,0.1,0.4,0.1c0.2,0,0.3,0,0.5,0.1c0.1,0,0.2,0,0.3,0c0.3,0,0.5,0,0.8,0l0,0l0,0h72c4.4,0,8-3.6,8-8
		s-3.6-8-8-8h-0.9l-11-88H192c0.4,0,0.8,0,1.2-0.1h0.1c0.4-0.1,0.8-0.2,1.2-0.3l0,0l0,0c0.2-0.1,0.5-0.2,0.7-0.3c0,0,0.1,0,0.1-0.1
		c0.2-0.1,0.4-0.2,0.6-0.3c0.1,0,0.1-0.1,0.2-0.1c0.1-0.1,0.3-0.2,0.4-0.3c0.1-0.1,0.2-0.1,0.3-0.2s0.2-0.2,0.3-0.3
		c0.1-0.1,0.2-0.2,0.3-0.2c0.1-0.1,0.2-0.2,0.3-0.3c0.1-0.1,0.2-0.2,0.2-0.3c0.1-0.1,0.2-0.2,0.3-0.3c0.1-0.1,0.1-0.2,0.2-0.3
		c0.1-0.1,0.2-0.2,0.2-0.4c0.1-0.1,0.1-0.2,0.2-0.3c0.1-0.1,0.1-0.3,0.2-0.4c0.1-0.1,0.1-0.2,0.1-0.3c0.1-0.1,0.1-0.3,0.2-0.4
		c0-0.1,0.1-0.2,0.1-0.4c0-0.1,0.1-0.2,0.1-0.3c0-0.2,0.1-0.3,0.1-0.5c0-0.1,0-0.2,0.1-0.2c0-0.2,0.1-0.4,0.1-0.7v-0.1
		c0.1-0.8,0-1.5-0.1-2.3v-0.1c0-0.2-0.1-0.4-0.1-0.5s0-0.2-0.1-0.3v-0.1l-4.5-13.5h21.6c3.8,22.7,23.6,40,47.3,40l0,0h32
		c0.8,0,1.6-0.1,2.3-0.3c1.9,0.2,3.7,0.3,5.7,0.3c26.5,0,48-21.5,48-48V212l0,0C352,185.5,330.5,164,304,164z M296,284
		c4.4,0,8,3.6,8,8s-3.6,8-8,8h-24v-16H296z M34.4,340H48c4.4,0,8-3.6,8-8s-3.6-8-8-8H23.5c-3.7-7.4-6.1-15.5-7.1-24H48
		c4.4,0,8-3.6,8-8s-3.6-8-8-8H16.5c0.9-8.5,3.4-16.6,7.1-24H48c4.4,0,8-3.6,8-8s-3.6-8-8-8H34.4c13.2-14.7,32.3-24,53.6-24h128v144
		h-31.9c-0.1,0-0.3,0-0.4,0H88C66.7,364,47.6,354.7,34.4,340z M111.1,492l-14-112H145l14,112H111.1z M180.9,388h-18.8l-1-8h17.2
		L180.9,388z M232,372V212c0-0.1,0-0.2,0-0.3c0.2-17.5,14.5-31.7,32-31.7h4.2c-7.6,8.5-12.3,19.7-12.3,32c0,0.2,0,0.3,0,0.5V372
		c0,12.3,4.6,23.5,12.3,32H264C246.4,404,232,389.6,232,372z M304,404c-17.6,0-32-14.4-32-32v-56h24c13.2,0,24-10.8,24-24
		s-10.8-24-24-24h-24v-56c0-0.1,0-0.2,0-0.3c0.2-17.5,14.5-31.7,32-31.7c17.7,0,32,14.4,32,32v160C336,389.6,321.6,404,304,404z"/>
</g>
</svg>
