<?xml version="1.0" encoding="utf-8"?>
<!-- Generator: Adobe Illustrator 23.0.2, SVG Export Plug-In . SVG Version: 6.00 Build 0)  -->
<svg version="1.1" id="Layer_1" xmlns="http://www.w3.org/2000/svg" xmlns:xlink="http://www.w3.org/1999/xlink" x="0px" y="0px"
	 width="512px" height="512px" viewBox="0 0 512 512" style="enable-background:new 0 0 512 512;" xml:space="preserve">
<style type="text/css">
	.st0{fill:#FFFFFF;}
</style>
<g>
	<g>
		<path class="st0" d="M423.1,124.5H88.4v94.9h99.9v172.8h134.9V219.4h99.9V124.5z M408.1,204.4h-99.9v172.8H203.3V204.4h-99.9
			v-64.9h304.7V204.4z"/>
		<polygon class="st0" points="15.5,26.1 82.6,93.2 93.2,82.6 26.1,15.5 67.9,15.5 67.9,0.5 0.5,0.5 0.5,67.9 15.5,67.9 		"/>
		<polygon class="st0" points="444.6,0.5 444.6,15.5 486.4,15.5 419.3,82.6 429.9,93.2 497,26.1 497,67.9 512,67.9 512,0.5 		"/>
		<polygon class="st0" points="497,486.4 429.9,419.3 419.3,429.9 486.4,497 444.6,497 444.6,512 512,512 512,444.6 497,444.6 		"/>
		<rect y="124.5" class="st0" width="59.9" height="15"/>
		<rect y="204.4" class="st0" width="59.9" height="15"/>
		<rect x="451.6" y="124.5" class="st0" width="59.9" height="15"/>
		<rect x="451.6" y="204.4" class="st0" width="59.9" height="15"/>
		<rect x="188.3" y="30" class="st0" width="15" height="63.9"/>
		<rect x="188.3" class="st0" width="15" height="15"/>
		<rect x="308.2" class="st0" width="15" height="15"/>
		<rect x="308.2" y="30" class="st0" width="15" height="63.9"/>
		<rect x="188.3" y="417.6" class="st0" width="15" height="63.9"/>
		<rect x="188.3" y="496.5" class="st0" width="15" height="15"/>
		<rect x="308.2" y="496.5" class="st0" width="15" height="15"/>
		<rect x="308.2" y="417.6" class="st0" width="15" height="63.9"/>
		<polygon class="st0" points="82.6,419.3 15.5,486.4 15.5,444.6 0.5,444.6 0.5,512 67.9,512 67.9,497 26.1,497 93.2,429.9 		"/>
		<rect x="248.3" y="237.3" class="st0" width="15" height="15"/>
		<rect x="248.3" y="267.3" class="st0" width="15" height="15"/>
		<rect x="248.3" y="207.4" class="st0" width="15" height="15"/>
		<rect x="248.3" y="177.4" class="st0" width="15" height="15"/>
	</g>
</g>
</svg>
